<?xml version="1.0" encoding="utf-8"?>
<!-- Svg Vector Icons : http://www.onlinewebfonts.com/icon -->
<!DOCTYPE svg PUBLIC "-//W3C//DTD SVG 1.1//EN" "http://www.w3.org/Graphics/SVG/1.1/DTD/svg11.dtd">
<svg version="1.1" xmlns="http://www.w3.org/2000/svg" xmlns:xlink="http://www.w3.org/1999/xlink" x="0px" y="0px" viewBox="0 0 1000 1000" enable-background="new 0 0 1000 1000" xml:space="preserve">
<metadata> Svg Vector Icons : http://www.onlinewebfonts.com/icon </metadata>
<g><g transform="translate(0.000000,511.000000) scale(0.100000,-0.100000)"><path d="M4077.7,4987.2c-443.5-72.3-851.9-513.5-933.6-1005.9l-28-170.4l-1003.6-11.7c-994.3-11.7-1001.3-11.7-1076-65.3c-93.4-65.4-158.7-228.7-137.7-340.8c9.3-46.7,42-114.4,77-154c126-151.7-182.1-140,4023.8-140h3830.1l91,51.4c95.7,53.7,184.4,198.4,184.4,301.1c0,98-98.1,259.1-186.7,305.8c-74.7,39.7-158.7,42-1066.7,42h-984.9l-14,88.7c-86.4,581.2-457.4,1008.3-954.6,1099.3C5734.8,5017.6,4252.8,5017.6,4077.7,4987.2z M5870.2,4123.7c77-60.7,79.3-158.7,4.7-247.4l-56-65.3h-828.6h-828.6l-60.7,56c-84,77-81.7,191.4,0,256.7c60.7,46.7,88.7,49,884.6,49C5781.5,4172.7,5809.5,4170.3,5870.2,4123.7z"/><path d="M8166.8,2678.9c-46.7-25.7-107.4-81.7-133-126c-49-77-58.3-217.1-231.1-3286.2L7623-3937.9l-2632.7-7c-2095.9-4.7-2630.4,0-2630.4,23.3c0,114.4-352.4,6278.4-364.1,6343.8c-18.7,107.3-161,247.4-273.1,268.4c-46.7,9.3-123.7,9.3-170.4,2.3c-105-21-259.1-170.4-277.7-275.4c-14-70,32.7-940.6,280.1-5421.8c46.7-807.5,88.7-1491.4,95.7-1517.1c9.3-25.7,39.7-81.7,72.4-123.7c116.7-156.4-123.7-144.7,3269.9-144.7h3078.5l79.4,53.7c105,70,179.7,186.7,193.8,303.4c18.6,142.4,364.1,6581.8,364.1,6761.5c0,123.7-11.7,168.1-58.3,240.4c-32.7,46.7-91,102.7-128.4,121.4C8428.3,2737.3,8271.9,2732.6,8166.8,2678.9z"/><path d="M4887.6,1953c-102.7-30.3-210.1-144.7-240.4-254.4c-16.3-60.7-21-844.9-18.7-2385.3c7-2266.3,7-2294.3,56-2376c142.4-242.7,466.8-249.7,604.5-11.7l58.3,98l-4.7,2359.6c-7,2357.3-7,2359.6-56,2425C5193.3,1932.1,5025.3,1992.7,4887.6,1953z"/><path d="M3354.2,1572.6c-105-39.7-210.1-133-245.1-221.7c-18.7-42-25.7-700.2-21-2207.9c7-2105.3,7-2149.6,53.7-2208c200.7-266.1,604.5-233.4,737.5,58.3c42,91,44.3,200.7,44.3,2182.3c0,2072.6,0,2088.9-49,2189.3C3788.3,1542.3,3543.2,1640.3,3354.2,1572.6z"/><path d="M6341.7,1572.6c-105-39.7-210.1-133-245.1-221.7c-18.7-42-25.7-700.2-21-2207.9c7-2105.3,7-2149.6,53.7-2208c200.7-266.1,604.5-233.4,737.5,58.3c42,91,44.4,200.7,44.4,2182.3c0,2072.6,0,2088.9-49,2189.3C6775.8,1546.9,6533,1642.6,6341.7,1572.6z"/></g></g>
</svg>